<?xml version="1.0" standalone="no"?>
<!DOCTYPE svg PUBLIC "-//W3C//DTD SVG 20010904//EN"
 "http://www.w3.org/TR/2001/REC-SVG-20010904/DTD/svg10.dtd">
<svg version="1.0" xmlns="http://www.w3.org/2000/svg"
 width="758.000000pt" height="758.000000pt" viewBox="0 0 758.000000 758.000000"
 preserveAspectRatio="xMidYMid meet">
<metadata>
Created by potrace 1.11, written by Peter Selinger 2001-2013
</metadata>
<g transform="translate(0.000000,758.000000) scale(0.100000,-0.100000)"
fill="#000000" stroke="none">
<path d="M3717 7404 c-1 -1 -33 -4 -72 -8 -38 -3 -86 -7 -105 -10 -87 -12
-123 -18 -138 -20 -81 -15 -98 -19 -108 -27 -22 -18 -7 -81 99 -414 19 -61 38
-124 40 -140 3 -17 8 -40 11 -53 16 -72 28 -190 24 -238 -7 -80 -49 -117 -157
-139 -9 -2 -29 -8 -46 -15 -16 -6 -30 -10 -30 -9 0 1 -30 -14 -67 -34 -38 -20
-83 -39 -100 -42 -18 -3 -40 -8 -49 -11 -9 -2 -72 -7 -139 -9 -66 -3 -125 -7
-129 -9 -4 -3 -22 -8 -40 -11 -18 -3 -51 -17 -73 -31 -23 -15 -48 -28 -57 -29
-9 -2 -16 -4 -16 -5 0 -1 -11 -3 -25 -5 -14 -1 -79 -17 -145 -34 -66 -18 -127
-34 -135 -36 -8 -2 -15 -4 -15 -5 0 -1 -8 -3 -18 -5 -10 -2 -51 -14 -90 -26
-40 -12 -75 -22 -79 -21 -5 1 -8 -3 -8 -9 0 -5 -3 -8 -7 -6 -5 3 -19 0 -33 -6
-14 -5 -33 -12 -43 -13 -69 -14 -373 -149 -506 -226 -46 -26 -86 -48 -88 -48
-2 0 -19 -11 -37 -25 -18 -14 -38 -25 -44 -25 -6 0 -12 -3 -14 -7 -1 -5 -30
-28 -63 -52 -33 -25 -61 -48 -63 -53 -2 -4 -8 -8 -12 -8 -19 0 -200 -173 -291
-280 -78 -90 -182 -239 -235 -335 -21 -38 -42 -71 -46 -73 -4 -2 -8 -8 -8 -14
0 -6 -20 -53 -45 -105 -25 -51 -45 -98 -45 -104 0 -5 -7 -21 -16 -34 -9 -14
-13 -25 -9 -25 4 0 3 -6 -2 -12 -10 -12 -51 -126 -58 -158 -2 -8 -9 -28 -15
-45 -6 -16 -13 -39 -16 -49 -2 -10 -8 -33 -13 -50 -6 -17 -12 -44 -15 -61 -5
-33 -9 -53 -31 -160 -8 -38 -17 -92 -20 -120 -4 -27 -11 -70 -17 -95 -21 -95
-30 -465 -15 -580 12 -83 24 -160 32 -200 3 -14 8 -41 12 -60 4 -19 8 -37 8
-40 1 -3 4 -18 8 -35 9 -35 16 -70 23 -105 3 -14 9 -40 15 -58 6 -18 12 -43
14 -55 12 -83 62 -225 163 -457 37 -88 152 -326 173 -360 9 -14 40 -68 69
-120 30 -52 56 -97 59 -100 3 -3 12 -16 20 -30 18 -34 154 -228 186 -265 14
-16 37 -45 52 -64 57 -70 173 -191 254 -266 107 -99 293 -238 392 -294 20 -11
54 -31 75 -43 41 -24 154 -81 162 -83 3 0 12 -5 20 -10 8 -5 20 -10 25 -12 12
-3 183 -71 210 -84 11 -5 29 -11 40 -14 11 -2 36 -9 55 -15 108 -35 244 -68
385 -95 97 -19 257 -42 345 -51 25 -2 68 -6 96 -9 131 -13 272 -18 549 -18
308 0 438 6 509 24 23 5 57 11 76 13 19 3 47 9 61 14 15 6 29 8 32 5 3 -3 12
-1 19 3 7 5 18 9 23 10 37 6 142 37 151 45 6 5 13 6 16 4 3 -3 34 5 69 18 35
13 66 25 69 25 26 4 294 113 398 163 57 27 106 49 108 49 2 0 25 13 51 28 26
16 50 28 53 28 7 0 135 71 191 105 25 16 51 29 57 29 7 0 12 4 12 9 0 5 8 12
18 15 15 5 222 136 265 168 9 7 49 36 88 63 74 52 313 239 358 280 14 13 51
45 81 72 77 67 305 297 365 367 28 32 58 68 69 80 10 11 39 48 64 81 26 33 50
65 54 70 46 58 168 243 168 255 0 5 6 15 14 22 25 26 88 151 176 353 5 11 20
53 35 94 22 64 32 98 50 174 2 10 6 26 9 35 3 9 8 33 11 52 3 19 10 58 15 85
6 28 12 73 14 101 2 29 6 56 8 60 6 12 2 359 -5 409 -3 22 -8 60 -11 85 -3 25
-8 55 -10 66 -2 12 -7 39 -10 60 -4 22 -8 46 -11 54 -2 8 -6 26 -9 40 -39 221
-201 635 -337 859 -22 34 -39 65 -39 68 0 6 -161 246 -170 253 -3 3 -22 27
-41 54 -18 28 -41 57 -49 66 -8 8 -35 40 -60 70 -120 147 -377 383 -510 469
-133 86 -316 170 -440 201 -19 4 -60 15 -90 23 -30 8 -71 18 -90 21 -40 7 -78
14 -117 22 -16 3 -46 7 -68 9 -22 2 -62 6 -90 10 -100 11 -204 16 -400 19
-181 3 -204 5 -240 24 -61 32 -84 35 -395 46 -167 6 -235 28 -265 86 -9 17
-16 71 -19 136 -3 60 -5 109 -6 109 -1 0 -3 34 -5 75 -3 72 -10 188 -21 350
-5 78 -12 154 -19 205 -2 17 -7 50 -10 75 -11 90 -24 140 -39 141 -18 2 -147
4 -149 3z"/>
</g>
</svg>
