<?xml version="1.0" encoding="UTF-8" standalone="no"?>
<!-- Created with Inkscape (http://www.inkscape.org/) -->

<svg
   xmlns:dc="http://purl.org/dc/elements/1.1/"
   xmlns:cc="http://creativecommons.org/ns#"
   xmlns:rdf="http://www.w3.org/1999/02/22-rdf-syntax-ns#"
   xmlns:svg="http://www.w3.org/2000/svg"
   xmlns="http://www.w3.org/2000/svg"
   xmlns:sodipodi="http://sodipodi.sourceforge.net/DTD/sodipodi-0.dtd"
   xmlns:inkscape="http://www.inkscape.org/namespaces/inkscape"
   width="758.27228"
   height="742.51636"
   id="svg2848"
   version="1.1"
   inkscape:version="0.47 r22583"
   sodipodi:docname="tomato_mekonee_29_vegetables_set_7.png">
  <defs
     id="defs2850">
    <inkscape:perspective
       sodipodi:type="inkscape:persp3d"
       inkscape:vp_x="0 : 495 : 1"
       inkscape:vp_y="0 : 1000 : 0"
       inkscape:vp_z="765 : 495 : 1"
       inkscape:persp3d-origin="382.5 : 330 : 1"
       id="perspective2857" />
    <inkscape:perspective
       id="perspective2867"
       inkscape:persp3d-origin="0.5 : 0.33333333 : 1"
       inkscape:vp_z="1 : 0.5 : 1"
       inkscape:vp_y="0 : 1000 : 0"
       inkscape:vp_x="0 : 0.5 : 1"
       sodipodi:type="inkscape:persp3d" />
  </defs>
  <sodipodi:namedview
     inkscape:document-units="in"
     pagecolor="#ffffff"
     bordercolor="#666666"
     borderopacity="1.0"
     inkscape:pageopacity="0.0"
     inkscape:pageshadow="2"
     inkscape:zoom="0.12727922"
     inkscape:cx="702.13151"
     inkscape:cy="-342.99392"
     inkscape:current-layer="layer1"
     id="namedview2852"
     showgrid="false"
     inkscape:window-width="784"
     inkscape:window-height="822"
     inkscape:window-x="0"
     inkscape:window-y="0"
     inkscape:window-maximized="0" />
  <metadata
     id="metadata2854">
    <rdf:RDF>
      <cc:Work
         rdf:about="">
        <dc:format>image/svg+xml</dc:format>
        <dc:type
           rdf:resource="http://purl.org/dc/dcmitype/StillImage" />
        <dc:title></dc:title>
      </cc:Work>
    </rdf:RDF>
  </metadata>
  <g
     inkscape:label="Layer 1"
     inkscape:groupmode="layer"
     id="layer1"
     transform="translate(-8.5442853,-247.09043)">
    <path
       style="fill:#000000;fill-opacity:0;fill-rule:evenodd;stroke:none"
       d="m 402.57191,252.35077 c 10.08357,27.82549 -1.35144,98.82091 9.00406,115.67451 10.98693,17.88153 145.04342,-15.29585 223.36255,38.33428 C 713.25765,459.98952 806.253,608.22105 749.17536,742.54118 692.0978,876.86114 505.84232,985.01934 400.75185,989.15943 211.13675,994.97058 96.507539,945.67898 25.14681,752.1703 6.3831755,677.52339 1.9512014,655.95629 20.039099,573.08766 65.575145,409.23743 190.59475,383.12144 333.87687,358.26999 c 58.53016,-12.00167 -21.77697,-93.44733 4.64456,-105.87246 22.39163,-3.03114 64.13202,-10.22612 64.05048,-0.0468 z"
       id="path4705"
       sodipodi:nodetypes="czzzcccccc" />
    <path
       style="fill:#d71404;fill-opacity:1;fill-rule:evenodd;stroke:none;stroke-opacity:1"
       d="m 389.62549,262.02123 c 9.60126,26.49458 -1.23119,96.62928 25.6738,114.55247 24.08353,16.04363 138.10582,-14.56425 212.67885,36.50063 74.57304,51.0648 163.12026,192.20623 108.77278,320.10163 C 682.40343,861.07127 505.05677,964.05608 404.99294,967.99816 224.44735,973.53132 115.30103,926.59745 47.353571,742.34452 29.487404,671.26806 25.267443,650.73259 42.490164,571.82768 85.848138,415.81455 204.88791,390.94778 341.31665,367.28497 c 55.73062,-11.42757 -20.73531,-88.97759 4.42245,-100.80841 21.32056,-2.88617 43.96403,-14.14779 43.88639,-4.45533 z"
       id="path4707"
       sodipodi:nodetypes="czzzcccccc" />
    <path
       style="fill:#09630b;fill-opacity:1;fill-rule:evenodd;stroke:none"
       d="m 337.14814,263.40542 c -1.11334,10.58546 14.2854,45.70666 16.49678,63.54075 2.21138,17.8341 6.9702,30.13723 -11.07428,34.02482 -18.04447,3.88759 -19.74782,11.78168 -36.11083,12.41245 -16.36301,0.63076 -31.97424,-1.35874 -40.41297,11.88574 -8.43872,13.24448 -17.86337,23.8948 -24.64114,36.54221 -6.7777,12.64733 10.80551,3.93317 23.90299,2.37311 13.09755,-1.56005 47.40017,-25.12269 56.06771,-11.9831 8.66746,13.13958 -14.21591,88.05196 -4.06247,90.82053 10.15336,2.7685 44.15796,-72.69804 64.98286,-74.20924 20.8249,-1.51128 48.85118,64.51946 59.96678,65.14219 11.1156,0.62273 -1.29434,-58.98596 6.72658,-61.40572 8.02099,-2.41977 35.36443,47.82412 41.39945,46.88702 6.03503,-0.93717 -6.73155,-47.86069 -5.18937,-52.50952 1.54219,-4.64883 26.00701,7.66812 14.40301,-4.30752 -11.604,-11.97564 -11.4735,-41.51185 -32.86055,-45.87191 -21.38706,-4.36006 -59.15117,3.92959 -60.87034,-14.56604 -1.71917,-18.49563 -3.19528,-86.35662 -9.318,-104.74348 -5.79104,-3.2739 -55.02672,2.81847 -59.40621,5.96771 z"
       id="path4713"
       sodipodi:nodetypes="czzzzzzzzzzzzzzzzcc" />
  </g>
</svg>
